<svg width="36" height="35" viewBox="0 0 36 35" fill="none" xmlns="http://www.w3.org/2000/svg">
<path d="M18 0.5C8.33125 0.5 0.500003 8.33125 0.500003 18C0.498018 21.6737 1.65293 25.2548 3.80088 28.2352C5.94883 31.2156 8.98076 33.4439 12.4665 34.604C13.3415 34.7562 13.6688 34.2312 13.6688 33.771C13.6688 33.3562 13.646 31.979 13.646 30.5125C9.25 31.3227 8.1125 29.4415 7.7625 28.4562C7.56475 27.9522 6.7125 26.4 5.96875 25.9835C5.35625 25.6562 4.48125 24.846 5.946 24.825C7.325 24.8022 8.3085 26.0937 8.6375 26.6187C10.2125 29.2647 12.729 28.521 13.7335 28.0625C13.8875 26.925 14.346 26.1602 14.85 25.7227C10.9563 25.2852 6.8875 23.775 6.8875 17.0812C6.8875 15.1772 7.56475 13.604 8.68125 12.3772C8.50625 11.9397 7.89375 10.146 8.85625 7.73975C8.85625 7.73975 10.321 7.28125 13.6688 9.53525C15.0934 9.13986 16.5653 8.94085 18.0438 8.94375C19.5313 8.94375 21.0188 9.13975 22.4188 9.5335C25.7648 7.2585 27.2313 7.7415 27.2313 7.7415C28.1938 10.1477 27.5813 11.9415 27.4063 12.379C28.521 13.604 29.2 15.1562 29.2 17.0812C29.2 23.7977 25.1103 25.2852 21.2165 25.7227C21.85 26.2687 22.3978 27.3187 22.3978 28.9602C22.3978 31.3 22.375 33.1812 22.375 33.7727C22.375 34.2312 22.704 34.7772 23.579 34.6022C27.0528 33.4294 30.0714 31.1967 32.2098 28.2185C34.3483 25.2403 35.499 21.6665 35.5 18C35.5 8.33125 27.6688 0.5 18 0.5Z" fill="black"/>
</svg>
