<svg width="36" height="36" viewBox="0 0 36 36" fill="none" xmlns="http://www.w3.org/2000/svg">
<path d="M18 35.5C8.33475 35.5 0.5 27.6652 0.5 18C0.5 8.33475 8.33475 0.5 18 0.5C27.6652 0.5 35.5 8.33475 35.5 18C35.5 27.6652 27.6652 35.5 18 35.5ZM12.5575 20.0475L12.5802 20.0353L14.1027 25.0578C14.2987 25.602 14.5682 25.7 14.8955 25.6545C15.2245 25.6108 15.3977 25.434 15.613 25.2275L17.692 23.2185L22.1545 26.5225C22.97 26.9723 23.5563 26.7395 23.7593 25.7665L26.659 12.078C26.9792 10.804 26.4193 10.293 25.4305 10.699L8.39775 17.279C7.23575 17.7445 7.24275 18.3955 8.18775 18.6842L12.5575 20.0492V20.0475Z" fill="black"/>
</svg>
